# xmcd CD database file
#
# Track frame offsets:
#	150
#	33657
#	142575
#
# Disc length: 2767 seconds
#
# Revision: 0
# Processed by: cddbd v1.5.2PL0 Copyright (c) Steve Scherf et al.
# Submitted via: CDex 1.51
#
DISCID=1d0acd03
DTITLE=Nik Bärtsch's Ronin - 2007 Jazz Happening in Tampere/Finnland
DYEAR=2007
DGENRE=Jazz
TTITLE0=Nik Bärtsch's Ronin - Modul 14
TTITLE1=Nik Bärtsch's Ronin - Modul 44_35
TTITLE2=Nik Bärtsch's Ronin - Modul 36
EXTD=YEAR: 2007
EXTT0=
EXTT1=
EXTT2=
PLAYORDER=
